<?xml version="1.0" encoding="UTF-8"?>
<svg width="1132px" height="469px" viewBox="0 0 1132 469" version="1.1" xmlns="http://www.w3.org/2000/svg" xmlns:xlink="http://www.w3.org/1999/xlink">
    <title>蓝色网址</title>
    <g id="页面-1" stroke="none" stroke-width="1" fill="none" fill-rule="evenodd">
        <g id="蓝色网址" transform="translate(0.840000, 0.550000)">
            <polygon id="路径" fill="#0058A6" points="30.28 92.58 1100.46 92.58 1130.73 122.78 1130.73 437.86 1100.46 468.45 30.28 468.45 -3.19744231e-14 437.86 -3.19744231e-14 122.78"></polygon>
            <polygon id="路径" fill="#FFE100" points="33.08 100.13 1097.66 100.13 1123.17 125.57 1123.17 435.08 1097.66 460.91 33.08 460.91 7.57 435.08 7.57 125.57"></polygon>
            <g id="编组" transform="translate(170.530000, 156.550000)" fill="#0058A6" fill-rule="nonzero">
                <path d="M144.63,74.7 L54.98,74.7 L0,246.75 L40.25,246.75 L56.98,192.31 L71.72,192.31 L70.13,198.27 L68.14,200.65 L66.15,203.03 L63.75,204.22 L60.57,205.42 L53.39,205.42 L52.6,244.35 L63.75,244.35 L70.92,243.16 L73.71,242.36 L77.3,240.77 L82.48,237.59 L85.27,235.21 L87.66,232.82 L90.04,230.44 L94.43,223.69 L96.82,219.32 L98.41,215.35 L101.99,206.61 L144.63,74.7 Z M77.69,160.92 L65.74,160.92 L70.51,148.6 L82.07,148.6 L77.69,160.92 Z M89.64,124.76 L78.09,124.76 L82.07,110.46 L93.63,110.46 L89.64,124.76 Z" id="形状"></path>
                <polygon id="路径" points="146.62 192.3 184.86 77.09 150.6 77.09 111.96 192.3"></polygon>
                <polygon id="路径" points="240.24 65.57 252.6 28.21 220.33 28.21 224.31 23.44 233.08 10.34 195.63 -2.84217094e-14 172.52 28.21 149.41 28.21 144.63 -2.84217094e-14 101.2 11.92 103.59 29.01 73.7 28.61 65.74 28.21 53.39 65.57"></polygon>
                <polygon id="路径" points="231.88 76.28 192.84 76.28 156.58 180.8 152.99 192.3 151.8 195.89 149.8 198.27 147.82 199.92 145.02 200.65 136.66 201.84 128.29 203.03 125.1 203.43 123.11 247.94 125.9 247.94 139.05 246.74 147.02 245.55 151.4 244.35 154.58 243.56 158.51 242.5 162.16 240.78 167.74 237.6 170.52 235.22 174.11 231.64 176.5 229.26 179.11 226.04 181.07 223.08 182.97 219.56 184.46 215.35"></polygon>
            </g>
            <g id="编组" transform="translate(387.270000, 161.320000)" fill="#0058A6" fill-rule="nonzero">
                <polygon id="路径" points="129.09 92.17 128.69 92.17 119.13 119.99 105.19 119.99 112.76 131.51 127.49 131.51 123.91 142.24 112.36 142.24 86.46 185.95 109.17 186.34 104.79 198.26 70.93 198.26 56.98 240.38 168.94 240.38 182.08 198.26 145.02 198.26 149.01 185.95 178.5 185.95 194.03 142.24 163.76 142.24 166.94 131.92 201.21 131.92 213.95 92.17"></polygon>
                <path d="M151.8,2.78 L149.01,46.89 L127.73,50.28 L115.15,84.24 L215.95,84.24 L243.84,2.79 L151.8,2.79 L151.8,2.78 Z M186.86,53.24 L163.83,53.24 L168.94,40.53 L191.65,40.53 L186.86,53.24 Z" id="形状"></path>
                <polygon id="路径" points="79.69 180.78 108.25 137.43 91.24 108.87 115.15 108.87 121.52 92.17 107.18 92.17 115.15 67.95 107.09 68.06 116.35 42.91 136.26 40.53 140.25 40.13 143.44 0 136.26 0.79 135.46 0.79 129.09 2.39 126.3 2.78 122.32 3.17 115.15 3.97 103.99 5.16 79.69 7.15 60.57 8.35 52.19 50.06 71.71 49.27 67.34 67.54 41.44 67.54 27.09 108.47 26.7 108.87 27.09 108.87 45.02 109.26 41.83 114.43 37.05 120.39 31.08 129.13 27.09 134.3 24.3 137.47 17.93 145.42 17.13 146.22 10.36 154.56 7.57 157.34 3.59 160.91 0 165.69 3.59 197.47 5.18 209.39 7.57 207 11.95 202.24 17.13 195.88 17.93 195.08 27.49 183.96 27.09 186.34 17.93 212.97 7.97 242.76 51.8 242.76 74.11 172.44"></polygon>
            </g>
            <path d="M743.06,263.04 L704.02,375.88 L702.83,379.86 L701.63,385.82 L701.63,390.76 L702.43,394.96 L703.22,396.55 L706.41,398.54 L708.8,399.33 L711.19,399.73 L717.16,400.13 L720.75,400.13 L725.13,400.13 L753.82,400.13 L756.22,400.13 L759.4,400.13 L763.78,399.73 L768.57,398.54 L772.95,397.34 L777.34,394.96 L780.52,392.18 L784.51,388.2 L787.29,385.02 L789.68,382.24 L794.87,373.49 L797.26,368.32 L798.96,363 L799.64,357.59 L799.64,355.21 L799.64,352.83 L799.24,351.23 L797.26,348.06 L796.85,347.66 L794.87,346.07 L793.67,345.27 L792.87,344.48 L792.47,342.49 L792.47,340.5 L792.87,337.72 L794.46,332.56 L796.85,325.8 L799.64,317.46 L800.04,316.26 L800.04,315.87 L799.64,315.08 L799.24,315.08 L798.45,315.08 L797.65,315.08 L796.85,317.06 L782.11,343.29 L775.74,354.41 L773.35,356.8 L771.76,358.39 L769.37,359.58 L767.77,359.98 L766.18,359.98 L750.24,359.98 L747.05,359.58 L745.46,358.79 L745.06,357.59 L745.06,356.8 L745.06,354.81 L745.74,350.78 L777.34,263.03 L823.95,263.03 L825.15,262.63 L826.34,261.04 L827.53,258.66 L827.53,258.27 L827.53,257.08 L827.13,254.7 L811.99,229.67 L811.59,228.87 L810.79,228.07 L809.59,227.28 L809.2,227.28 L808,228.07 L806.01,229.27 L780.11,255.49 L742.26,255.49 L768.56,189.93 L837.48,189.93 L839.08,189.93 L839.88,188.74 L841.07,186.76 L841.07,186.36 L841.07,184.77 L840.28,182.39 L825.53,157.37 L825.14,156.57 L824.74,156.18 L823.15,154.98 L822.75,154.98 L821.55,154.98 L819.96,156.96 L793.66,183.19 L685.29,183.19 L681.71,184.77 L681.31,186.76 L680.91,188.74 L680.91,189.54 L681.31,189.93 L682.91,189.93 L732.7,189.93 L706.41,255.49 L643.06,255.49 L641.46,255.88 L640.67,256.29 L639.07,257.88 L638.67,258.67 L638.67,260.66 L638.67,261.85 L639.07,262.65 L640.67,263.05 L703.22,263.05 L698.91,272.24 C698.06,274.05 697.15,275.83 696.18,277.59 L691.26,286.49 L686.53,295.29 C685.69,296.84 684.81,298.37 683.89,299.87 L678.91,307.96 L675.03,314.49 C673.37,317.28 671.57,319.97 669.62,322.57 L665.38,328.21 L660.45,335.17 C659.31,336.79 658.11,338.36 656.86,339.9 L651.83,346.09 L644.27,354.83 L641.04,358.65 C638.94,361.14 636.7,363.51 634.34,365.75 L631.52,368.43 C630.19,369.69 628.82,370.92 627.42,372.1 L621.96,376.69 L614.39,383.04 L606.02,389.4 L603.41,391.32 C600.11,393.75 596.65,395.95 593.05,397.91 L589.68,399.74 L588.31,400.36 L586.89,402.12 L586.49,403.31 L586.49,404.1 L586.89,404.51 L588.18,404.51 L589.67,404.1 L596.5,401.33 C599.12,400.27 601.68,399.08 604.19,397.78 L609.59,394.97 L619.16,390.2 L628.72,385.03 L632.48,382.91 C636.07,380.89 638.9,379.03 642.19,376.53 L643.9,375.29 C645.41,374.14 647.05,372.97 648.64,371.92 L654.62,367.94 L659.88,364.2 C661.95,362.72 663.97,361.16 665.91,359.51 L669.14,356.77 C670.35,355.74 671.54,354.68 672.7,353.58 L678.53,348.07 L685.7,340.92 L691.03,335.31 C692.26,334.02 693.45,332.69 694.6,331.32 L699.24,325.81 L705.61,318.26 L709.46,313.51 C711.4,311.12 713.22,308.62 714.91,306.04 L718.35,300.77 L721.43,296.16 C722.56,294.46 723.64,292.73 724.66,290.96 L726.35,288.02 C727.4,286.19 728.38,284.33 729.3,282.43 L738.68,263.04 L743.06,263.04 L743.06,263.04 Z" id="路径" fill="#0058A6"></path>
            <g id="编组" transform="translate(837.060000, 151.720000)" fill="#0058A6" fill-rule="nonzero">
                <polygon id="路径" points="197.25 52.12 199.25 53.31 200.84 54.1 201.64 54.5 204.03 54.89 207.62 54.5 210.01 54.1 212 53.31 213.2 52.51 215.98 50.13 219.17 47.34 221.96 44.17 224.35 39.8 226.34 35.43 227.14 30.65 227.54 27.48 227.54 23.51 227.14 21.92 226.74 20.33 225.54 17.95 223.16 14.76 220.76 12.38 217.58 10.39 214.78 9.6 211.2 8.02 207.22 7.62 204.03 7.22 202.84 7.22 198.45 7.22 197.25 7.22 196.86 7.22 196.46 7.62 196.06 7.62 196.06 8.81 196.06 9.6 196.06 10.39 197.25 12.77 198.85 15.17 199.25 18.33 199.25 21.92 199.25 25.49 198.85 30.26 198.23 34.93 196.86 40.19 196.06 44.17 196.06 47.34 196.46 49.73"></polygon>
                <path d="M238.29,68.8 L235.9,64.43 L226.34,48.14 L224.75,47.34 L223.95,46.94 L222.36,47.74 L219.57,50.91 L218.37,52.1 L212.4,58.05 L212,58.85 L204.04,66.8 L160.21,66.8 L176.95,20.32 L178.94,17.94 L179.73,17.14 L181.33,15.95 L183.72,15.16 L186.11,14.36 L188.9,11.98 L189.3,10.38 L189.7,9.6 L189.7,8.01 L189.3,6.81 L187.31,5.62 L156.23,0.45 L155.1,0.45 L154.23,0.84 L153.03,2.82 L152.23,4.81 L130.32,66.79 L121.55,66.79 L120.36,63.22 L119.95,62.02 L119.17,60.83 L117.57,58.04 L115.58,55.66 L113.18,53.28 L110.4,51.68 L106.81,49.69 L103.22,47.71 L111.99,22.67 L112.78,20.68 L113.98,19.09 L115.35,17.24 L116.77,15.91 L120.36,12.73 L121.15,11.94 L122.34,9.95 L122.55,8.77 L122.74,7.56 L122.34,6.76 L121.54,5.17 L121.14,4.38 L119.94,3.18 L117.96,2.78 L116.36,2.78 L89.67,0 L89.27,0 L88.07,0.4 L86.87,0.79 L85.67,1.99 L85.27,2.77 L84.87,4.76 L61.77,72.3 L60.97,66.74 L59.78,62.77 L57.78,59.19 L56.19,56.41 L54.99,55.61 L54.6,56.41 L54.19,56.81 L54.19,58.79 L54.6,61.57 L54.6,64.35 L54.6,67.52 L54.19,70.31 L52.6,77.06 L49.8,82.62 L45.42,89.38 L40.24,96.53 L37.05,99.71 L33.07,104.08 L21.91,114.02 L19.92,116.41 L16.34,122.37 L15.14,129.12 L15.14,131.9 L15.93,134.68 L16.34,136.28 L17.14,136.67 L17.53,138.27 L18.72,138.66 L19.52,139.05 L20.72,139.05 L21.91,139.45 L23.51,139.45 L25.49,139.45 L27.49,139.05 L29.88,138.66 L32.27,137.07 L41.84,129.52 L1.99,243.55 L0.39,247.92 L0,251.5 L0,252.7 L0,253.89 L0.39,255.47 L0.79,256.27 L2.39,256.27 L4.78,257.06 L8.76,257.45 L13.54,257.45 L18.32,257.45 L21.91,257.06 L25.49,256.27 L27.89,255.08 L29.08,254.69 L29.88,253.89 L31.07,251.5 L33.07,247.92 L35.06,243.55 L101.6,53.24 L102,54.43 L103.19,56.81 L103.99,60.38 L102,68.72 L99.21,76.27 L94.83,85.01 L92.77,90.09 L92.43,92.57 L92.43,94.95 L92.83,97.33 L94.43,99.32 L95.23,100.51 L95.62,101.31 L97.62,101.7 L100.01,102.11 L103.19,101.7 L105.58,101.31 L108.77,99.32 L111.23,97.03 L113.15,94.56 L115.14,92.17 L117.21,89.26 L119.13,85.01 L120.32,81.84 L121.51,77.47 L122.31,73.88 L127.89,73.88 L119.91,96.53 L111.55,117.59 L103.18,137.06 L99.2,146.6 L94.82,155.75 L89.65,167.41 C88.05,171.02 86.31,174.56 84.44,178.04 L78.89,188.33 L70.92,202.63 L67.73,208.98 L61.71,218.45 C61.64,218.56 61.56,218.68 61.48,218.79 L49.99,234.81 C49.51,235.39 48.73,236.33 48.25,236.91 L43.04,242.37 L39.85,245.55 L37.06,247.94 L34.67,250.32 L32.67,252.3 L32.27,253.1 L32.67,253.9 L33.07,254.7 L33.47,254.7 L35.06,253.9 L40.24,252.3 L45.42,249.92 L50.2,247.54 L55.39,244.76 L60.17,241.18 L64.55,238.4 L66.94,236.41 L68.93,235.22 L73.31,231.24 L77.69,226.48 L82.48,221.71 L87.26,216.15 L92.04,210.19 L96.82,203.43 L100.24,198.88 L103,194.5 C105.28,189.97 106.8,187.52 109.52,183.24 L110.23,182.12 L112.17,178.59 C114.95,173.97 117.48,169.21 119.75,164.32 L121.52,160.53 L132.68,135.9 L139.05,121.2 L145.03,106.5 L151.4,90.21 L157.78,73.91 L162.95,73.91 L111.55,222.52 L110.36,225.69 L109.17,228.87 L108.77,234.04 L108.77,236.42 L108.77,238.41 L109.17,240.4 L109.56,241.19 L110.76,242.78 L111.95,243.57 L113.94,244.77 L115.54,245.17 L117.93,245.56 L120.32,245.56 L123.11,245.56 L127.09,245.56 L147.42,245.56 L149.8,245.56 L152.19,245.56 L156.57,245.17 L160.67,243.82 L162.55,243.18 L164.15,242.38 L167.73,240.26 L171.72,237.61 L174.79,233.78 L177.29,230.46 L181.28,225.69 L184.07,220.13 L186.06,215.36 L186.85,210.59 L187.26,208.21 L187.26,206.62 L187.26,205.03 L186.85,203.43 L186.46,201.84 L186.05,200.65 L184.46,199.45 L182.47,198.66 L182.07,197.86 L181.67,195.87 L181.67,193.88 L181.67,191.5 L182.07,188.71 L182.47,185.55 L184.06,181.57 L186.05,176.8 L186.05,176.4 L186.05,176 L186.05,175.21 L184.86,174.41 L184.46,174.41 L183.62,175.05 L182.47,176 L182.07,176.4 L174.1,191.5 L170.11,198.25 L166.53,203.02 L165.28,204.65 L163.74,205.8 L161.75,207 L160.15,207 L149,207 L147.41,206.6 L147.01,205.41 L148.6,199.45 L192.04,73.89 L204,73.89 L211.96,73.89 L215.94,73.89 L217.54,73.89 L219.53,73.89 L235.86,73.89 L236.66,73.5 L238.25,72.3 L238.65,70.32 L238.29,68.8 Z" id="路径"></path>
            </g>
            <polygon id="路径" fill="#FFFFFF" points="113.95 9.94 136.27 9.94 136.27 107.28 143.44 107.28 143.44 9.94 166.54 9.94 166.54 107.28 173.72 107.28 173.72 32.59 196.02 32.59 196.02 123.17 188.86 123.17 188.86 182.78 181.28 182.78 181.28 190.32 173.72 190.32 173.72 198.67 158.97 198.67 158.97 205.03 105.98 205.42 105.98 198.67 91.25 198.67 91.25 190.32 83.67 190.32 83.67 183.18 75.7 183.18 75.7 168.08 68.53 168.08 68.53 130.33 80.89 130.33 81.28 123.17 68.93 123.17 68.93 115.23 60.56 115.63 60.56 100.13 72.11 100.13 72.11 92.58 91.64 92.58 91.64 100.53 106.38 100.53 106.38 107.28 113.55 107.28"></polygon>
            <path d="M196.02,122.78 L196.02,32.98 L173.71,32.98 L173.71,107.68 L166.13,107.68 L166.13,10.34 L143.82,10.34 L143.82,107.69 L135.85,107.69 L135.85,10.34 L113.94,10.34 L113.94,107.69 L105.97,107.69 L105.97,100.54 L98.79,100.54 L98.79,92.59 L105.97,92.59 L105.97,9.94 L113.54,9.94 L113.54,2.78 L136.65,2.78 L136.65,9.94 L143.02,9.94 L143.02,2.78 L166.53,2.78 L166.53,9.94 L173.71,9.94 L173.71,25.04 L196.41,25.04 L196.41,32.19 L203.99,32.19 L203.99,123.17 L196.41,123.17 L196.41,183.17 L189.24,183.17 L189.24,191.12 L181.67,191.12 L181.67,198.66 L173.71,198.66 L173.71,205.81 L158.96,205.81 L158.96,213.37 L105.97,213.37 L105.97,205.81 L98.79,205.81 L98.79,198.27 L106.37,198.27 L106.37,205.03 L158.56,205.03 L158.56,198.27 L173.31,198.27 L173.31,189.92 L180.88,189.92 L180.88,182.37 L188.85,182.37 L188.85,122.77 L196.02,122.77 L196.02,122.78 Z M98.81,153.78 L98.81,153.78 L98.81,146.22 L106.39,146.22 L106.39,122.78 L98.81,122.78 L98.81,114.83 L98.81,114.83 L98.81,153.78 Z M98.81,100.53 L90.84,100.53 L90.84,92.98 L90.84,85.03 L91.64,85.03 L91.64,92.59 L98.81,92.59 L98.81,100.53 L98.81,100.53 Z M98.81,205.82 L90.84,205.82 L90.84,198.67 L90.84,189.93 L91.64,189.93 L91.64,198.28 L98.81,198.28 L98.81,205.82 L98.81,205.82 Z M98.81,114.83 L98.81,153.78 L90.84,153.78 L90.84,146.22 L90.84,129.93 L91.64,129.93 L91.64,145.03 L98.02,145.03 L98.02,123.17 L90.84,123.17 L90.84,114.83 L98.81,114.83 L98.81,114.83 Z M90.84,92.98 L90.84,85.03 L68.53,85.03 L68.53,92.59 L60.16,92.59 L60.16,99.74 L52.59,99.74 L52.59,115.64 L60.16,115.64 L60.16,123.18 L68.53,123.18 L68.53,129.94 L60.16,129.94 L60.16,168.48 L68.53,168.48 L68.53,183.19 L75.3,183.19 L75.3,191.14 L83.26,191.14 L83.26,198.68 L90.83,198.68 L90.83,189.94 L83.66,189.94 L83.66,182.39 L76.09,182.39 L76.09,167.69 L68.92,167.69 L68.92,130.34 L83.26,130.34 L83.26,146.23 L90.83,146.23 L90.83,129.94 L83.66,129.94 L83.66,123.18 L90.83,123.18 L90.83,114.84 L83.26,114.84 L83.26,122.79 L68.93,122.79 L68.93,114.84 L61.36,114.84 L61.36,100.15 L72.91,100.15 L72.91,93 L90.84,93 L90.84,92.98 Z" id="形状" fill="#0058A6"></path>
            <g id="编组" transform="translate(239.860000, 0.000000)" fill="#0058A6" fill-rule="nonzero">
                <path d="M341.05,24.24 C338.66,24.24 336.67,24.63 334.67,25.04 C332.28,25.43 330.3,26.22 328.3,27.42 L329.89,16.69 L361.36,16.69 L361.36,1.19 L314.75,1.19 L308.77,38.94 L325.5,41.33 C326.7,39.34 328.29,38.15 329.49,37.75 C331.47,36.56 333.07,36.16 335.06,36.16 C337.85,36.16 340.24,37.35 342.23,39.34 C343.82,40.93 345.02,44.11 345.02,48.48 C345.02,52.46 343.83,55.63 342.23,57.61 C340.64,59.6 338.25,60.39 335.46,60.39 C333.07,60.39 331.08,59.59 329.09,58 C327.49,56.41 326.3,54.03 325.9,50.85 L305.98,53.24 C307.18,56.41 308.37,59.2 309.57,61.19 C311.16,63.57 313.15,65.56 315.54,67.14 C317.53,68.73 320.33,70.33 323.91,71.11 C327.1,71.9 331.09,72.3 335.87,72.3 C342.24,72.3 347.43,71.5 351.41,69.12 C355.79,66.74 358.99,63.56 360.97,59.58 C363.36,55.21 364.56,51.24 364.56,46.47 C364.56,40.11 362.17,34.95 357.79,30.58 C353.8,26.22 347.82,24.24 341.05,24.24 Z" id="路径"></path>
                <path d="M392.05,11.13 C388.46,14.31 383.29,16.69 376.51,18.67 L376.51,34.57 C381.29,33.38 384.88,31.79 388.07,30.59 C390.85,29.01 394.05,27.01 397.23,24.63 L397.23,71.12 L416.76,71.12 L416.76,3.55271368e-15 L400.82,3.55271368e-15 C398.82,4.38 395.63,7.94 392.05,11.13 Z" id="路径"></path>
                <polygon id="路径" points="158.57 52.46 147.81 20.67 130.28 20.67 119.92 52.46 111.55 20.67 92.83 20.67 111.55 71.13 129.08 71.13 139.05 40.53 149.41 71.13 166.53 71.13 185.26 20.67 166.53 20.67"></polygon>
                <polygon id="路径" points="276.1 51.66 276.1 71.13 277.3 71.13 296.82 71.13 296.82 51.66 277.3 51.66"></polygon>
                <polygon id="路径" points="65.74 52.46 54.98 20.67 37.45 20.67 27.09 52.46 18.72 20.67 0 20.67 18.72 71.13 36.25 71.13 46.21 40.53 56.57 71.13 73.71 71.13 92.43 20.67 73.71 20.67"></polygon>
                <path d="M441.05,67.94 C441.05,71.51 440.65,73.51 439.85,74.7 C439.06,75.89 437.46,76.29 435.87,76.29 C435.07,76.29 433.87,76.29 432.68,75.9 L429.49,90.2 C435.07,91.39 439.85,91.79 443.44,91.79 C448.22,91.79 451.81,90.99 454.19,89.41 C456.59,87.82 458.18,85.83 459.38,83.06 C460.18,80.28 460.58,75.9 460.58,69.55 L460.58,20.67 L441.05,20.67 L441.05,67.94 Z" id="路径"></path>
                <polygon id="路径" points="278.1 20.67 277.3 20.67 259.37 20.67 251.4 52.46 240.64 20.67 223.11 20.67 212.75 52.46 204.39 20.67 185.66 20.67 204.39 71.13 221.91 71.13 231.88 40.53 242.24 71.13 259.37 71.13 277.3 23.45"></polygon>
                <path d="M729.91,19.48 C721.14,19.48 713.97,21.86 708.79,27.02 C703.61,31.79 700.82,38.15 700.82,46.1 C700.82,54.44 704.01,61.2 709.98,66.36 C715.17,70.34 721.94,72.32 729.9,72.32 C739.07,72.32 746.24,69.93 751.42,64.77 C756.59,60.01 759.38,53.65 759.38,45.7 C759.38,38.95 756.99,32.99 753.01,28.22 C747.84,22.25 740.27,19.48 729.91,19.48 Z M737.08,56.03 C735.09,58.01 732.7,59.21 729.91,59.21 C727.13,59.21 725.13,58.01 723.14,56.03 C721.14,54.04 720.35,50.47 720.35,46.1 C720.35,41.72 721.14,38.15 723.14,36.16 C725.13,33.78 727.13,32.98 729.91,32.59 L730.31,32.59 C733.1,32.59 735.09,33.78 737.08,36.16 C738.67,38.15 739.87,41.33 739.87,45.7 C739.87,50.47 738.67,54.04 737.08,56.03 Z" id="形状"></path>
                <rect id="矩形" x="441.05" y="1.19" width="19.53" height="13.51"></rect>
                <path d="M850.63,24.24 C847.85,21.06 843.46,19.48 837.89,19.48 C834.3,19.48 831.11,19.87 828.73,21.07 C826.33,22.26 823.54,24.64 820.36,27.83 C818.77,25.05 816.77,23.06 814.38,21.47 C811.99,20.28 808.8,19.49 804.82,19.49 C801.24,19.49 798.05,19.88 795.26,21.47 C792.48,22.66 790.09,25.05 787.29,27.83 L787.29,20.68 L768.97,20.68 L768.97,71.14 L788.49,71.14 L788.49,45.3 C788.49,41.32 789.29,38.55 790.88,36.95 C792.08,35.36 794.07,34.57 796.46,34.57 C797.66,34.57 798.85,34.97 800.05,35.76 C800.85,36.56 801.64,37.35 802.04,38.94 C802.43,39.73 802.43,40.93 802.43,43.31 L802.43,71.12 L821.95,71.12 L821.95,44.91 C821.95,41.33 822.74,38.94 823.94,36.96 C825.54,35.37 827.53,34.58 829.52,34.58 C831.51,34.58 833.1,35.37 834.7,37.36 C835.5,38.56 835.9,40.14 835.9,42.53 L835.9,71.14 L855.42,71.14 L855.42,39.34 C855.42,32.59 853.82,27.42 850.63,24.24 Z" id="路径"></path>
                <path d="M671.74,57.61 C669.76,58.81 667.76,59.21 664.97,59.21 C662.19,59.21 659.4,58.41 657.41,56.03 C655.41,54.04 654.61,50.87 654.61,46.49 C654.61,42.12 655.41,38.55 657.41,36.16 C659.4,33.78 662.19,32.59 665.38,32.59 C668.17,32.59 670.16,33.38 671.35,34.17 C672.95,35.36 674.15,36.95 674.54,39.34 L692.86,36.95 C691.27,30.99 688.08,26.62 683.7,23.84 C679.31,20.66 673.34,19.47 664.97,19.47 C659,19.47 654.21,20.26 650.24,21.85 C647.85,22.64 645.45,24.23 643.46,26.22 C641.07,28.21 639.09,30.59 637.89,32.98 C636.29,36.57 635.1,40.93 635.1,46.1 C635.1,51.26 635.9,55.24 637.49,58.01 C639.09,61.2 641.07,63.97 643.46,65.96 C646.26,68.35 649.04,69.93 652.63,70.73 C656.21,71.92 660.99,72.32 666.17,72.32 C671.74,72.32 676.53,71.52 680.11,69.93 C683.7,68.35 686.49,66.36 688.89,63.58 C691.27,60.8 692.86,57.23 694.06,53.65 L675.33,51.26 C674.53,54.04 673.33,56.03 671.74,57.61 Z" id="路径"></path>
                <path d="M500.02,19.48 C490.85,19.48 484.08,21.86 478.5,27.02 C473.32,31.79 470.94,38.15 470.94,46.1 C470.94,54.44 473.72,61.2 480.1,66.36 C485.27,70.34 491.65,72.32 500.02,72.32 C509.18,72.32 516.36,69.93 521.53,64.77 C526.72,60.01 529.1,53.65 529.1,45.7 C529.1,38.95 527.12,32.99 523.13,28.22 C517.95,22.25 509.97,19.48 500.02,19.48 Z M506.79,56.03 C505.2,58.01 502.81,59.21 500.02,59.21 C497.23,59.21 494.84,58.01 493.24,56.03 C491.25,54.04 490.46,50.47 490.46,46.1 C490.46,41.72 491.26,38.15 493.24,36.16 C494.83,33.78 497.23,32.98 500.02,32.59 C502.81,32.59 505.2,33.78 506.79,36.16 C508.79,38.15 509.59,41.33 509.59,45.7 C509.59,50.47 508.79,54.04 506.79,56.03 Z" id="形状"></path>
                <path d="M573.73,19.48 C571.34,19.48 568.95,19.87 566.96,20.27 C566.55,20.67 565.77,20.67 565.37,21.07 C562.97,21.87 560.58,23.46 558.59,25.44 L558.59,1.19 L539.07,1.19 L539.07,71.12 L557.4,71.12 L557.4,63.57 C559.78,66.75 562.18,69.13 564.17,70.33 C564.97,70.72 566.16,71.12 566.96,71.51 C568.95,71.92 571.34,72.31 573.73,72.31 C577.71,72.31 581.3,71.51 584.49,69.13 C587.67,67.15 590.47,63.97 592.06,59.59 C594.05,55.62 594.84,50.86 594.84,45.29 C594.84,36.94 592.86,30.58 588.87,26.21 C584.89,21.46 579.71,19.48 573.73,19.48 Z M572.93,55.23 C571.73,57.22 569.74,58.01 567.35,58.01 L566.96,58.01 C564.57,58.01 562.57,57.22 560.98,55.23 C559.38,53.25 558.59,50.06 558.59,45.69 C558.59,41.71 559.38,38.94 560.98,36.95 C562.57,34.97 564.57,34.17 566.96,33.77 C567.35,33.77 567.35,33.77 567.35,33.77 C569.74,33.77 571.74,34.97 573.33,36.56 C574.53,38.55 575.33,41.71 575.33,45.69 C575.32,50.06 574.53,53.25 572.93,55.23 Z" id="形状"></path>
                <rect id="矩形" x="604.8" y="51.66" width="20.72" height="19.47"></rect>
            </g>
        </g>
    </g>
</svg>